<?xml version="1.0" encoding="iso-8859-1"?>
<!-- Generator: Adobe Illustrator 29.0.1, SVG Export Plug-In . SVG Version: 9.03 Build 54978)  -->
<svg version="1.1" id="Layer_1" xmlns="http://www.w3.org/2000/svg" xmlns:xlink="http://www.w3.org/1999/xlink" x="0px" y="0px"
	 viewBox="0 0 565.377 200" style="enable-background:new 0 0 565.377 200;" xml:space="preserve">
<g id="xGAGIj_00000180337539240225447340000005689260538918601394_" style="display:none;">
	
		<image style="display:inline;overflow:visible;enable-background:new    ;" width="610" height="325" id="xGAGIj" xlink:href="4C726BC4A4F4836.jpg"  transform="matrix(0.5051 0 0 0.4069 45.9663 47.8847)">
	</image>
</g>
<rect x="47.189" y="146.963" style="display:none;fill:#43469D;" width="305.434" height="1.566"/>
<path style="fill:none;stroke:#EE2763;stroke-miterlimit:10;" d="M565.377,91.656c-31.315,12.894-83.336,18.912-112.238,21.318
	c-28.902,2.407-66.798-9.8-97.308-13.581c-30.51-3.782-54.596,4.469-61.66,9.282c-7.064,4.813-24.248,26.649-3.211,16.676
	c21.037-9.97,30.027-35.931,31.892-46.936c1.865-11.004-1.703-37.48-18.724-22.523c-17.021,14.957-13.489,35.761-13.489,35.761
	c0-4.126-4.495-22.006-15.737-30.087c-11.241-8.081-20.07,1.719-13.327,19.256s18.144,27.163,23.764,29.569
	s8.67-10.831-25.049-15.13c-33.722-4.299-62.945,12.894-110.152,22.006s-69.379-1.744-69.812-1.892
	C79.892,115.226,31.023,97.929,0,117.286"/>
</svg>
